# xmcd
#
# Track frame offsets:
#	150
#	14990
#	27495
#	40222
#	50335
#	63263
#	75356
#	87244
#	102637
#	119198
#
# Disc length: 1783 seconds
#
# Revision: 0
# Processed by: cddbd v1.5.1PL0 Copyright (c) Steve Scherf et al.
# Submitted via: MusicWizard 7.1.1b
#
DISCID=8806f50a
DTITLE=Waylon Jennings - Black On Black
DYEAR=1982
DGENRE=Country
TTITLE0=Women Do Know How To Carry On
TTITLE1=Honky Tonk Blues
TTITLE2=Just To Satisfy You
TTITLE3=We Made It As Lovers [We Just Couldn't Make It As Friends]
TTITLE4=Shine
TTITLE5=Folsom Prison Blues
TTITLE6=Gonna Write A Letter
TTITLE7=May I Borrow Some Sugar From You
TTITLE8=Song For The Life
TTITLE9=Get Naked With Me
EXTD=(p)1982 RCA Victor
EXTT0=
EXTT1=
EXTT2=
EXTT3=
EXTT4=
EXTT5=
EXTT6=
EXTT7=
EXTT8=
EXTT9=
PLAYORDER=
